<svg id="组_24736" data-name="组 24736" xmlns="http://www.w3.org/2000/svg" width="51.769" height="55.086" viewBox="0 0 51.769 55.086">
  <g id="组_24570" data-name="组 24570">
    <path id="路径_23581" data-name="路径 23581" d="M204.733,164l13.891,0a18.863,18.863,0,0,1,4.689.345,9.026,9.026,0,0,1,2.861,1.213l.312.207a19.11,19.11,0,0,1,2.882,2.588l10.009,7.407a18.967,18.967,0,0,1,2.942,3.494,9.005,9.005,0,0,1,1.13,2.785l.074.355a21.651,21.651,0,0,1,.245,4.2v19.214l-.009,1.053c-.071,3.831-.544,5.372-1.374,6.925a9.408,9.408,0,0,1-3.914,3.914c-1.688.9-3.362,1.382-7.978,1.382H205.274l-1.053-.009c-3.831-.071-5.372-.544-6.925-1.374a9.408,9.408,0,0,1-3.914-3.914c-.866-1.622-1.343-3.227-1.381-7.437l0-29.08c0-4.614.48-6.288,1.382-7.976a9.408,9.408,0,0,1,3.914-3.914c1.622-.866,3.227-1.343,7.437-1.38Z" transform="translate(-192 -164)" fill="#fd632f"/>
    <path id="路径_23582" data-name="路径 23582" d="M575.472,131.472a10.1,10.1,0,0,1,2.9,1.043l.317.178a18.764,18.764,0,0,1,2.924,2.225l10.157,8.87a17.235,17.235,0,0,1,2.986,3,7.615,7.615,0,0,1,.487.759h-4.385c-5.464,0-7.446-.482-9.444-1.387a10.451,10.451,0,0,1-4.634-3.925l-.221-.363c-.926-1.584-1.417-3.338-1.417-7.636v-2.827l.326.062Z" transform="translate(-544.154 -131.413)" opacity="0.104"/>
    <path id="路径_23583" data-name="路径 23583" d="M598.744,138.813l.318.174a18.773,18.773,0,0,1,2.932,2.173l10.182,8.664a27.922,27.922,0,0,1,2.365,2.17h-3.7l-1.071-.007c-3.9-.059-5.465-.456-7.045-1.153a8.924,8.924,0,0,1-3.981-3.286c-.918-1.417-1.406-2.822-1.406-6.7V138.2a10.021,10.021,0,0,1,1.411.616Z" transform="translate(-564.546 -137.648)" fill="#ffc89e"/>
    <path id="路径_23597" data-name="路径 23597" d="M381.881,420.571H371.2v26.911h6.936v-9.433h4.023c7.907,0,12.623-3.329,12.623-9.017C394.643,423.484,390.343,420.571,381.881,420.571Zm-3.745,4.716h3.329c4.578,0,6.381,1.11,6.381,3.884,0,2.913-2.081,4.3-6.242,4.3H378v-8.184Z" transform="translate(-357.106 -404.43)" fill="#fff"/>
  </g>
</svg>
