<svg id="组_24737" data-name="组 24737" xmlns="http://www.w3.org/2000/svg" width="49" height="52.139" viewBox="0 0 49 52.139">
  <g id="组_24574" data-name="组 24574">
    <g id="组_24570" data-name="组 24570">
      <path id="路径_23581" data-name="路径 23581" d="M204.052,164l13.148,0a17.854,17.854,0,0,1,4.438.327,8.542,8.542,0,0,1,2.708,1.148l.3.2a18.086,18.086,0,0,1,2.728,2.45l9.473,7.011a17.954,17.954,0,0,1,2.785,3.308,8.523,8.523,0,0,1,1.07,2.636l.07.336a20.5,20.5,0,0,1,.232,3.977v18.186l-.008,1c-.067,3.626-.514,5.085-1.3,6.555a8.9,8.9,0,0,1-3.7,3.7c-1.6.854-3.182,1.308-7.551,1.308H204.564l-1-.008c-3.626-.067-5.085-.514-6.555-1.3a8.9,8.9,0,0,1-3.7-3.7c-.82-1.535-1.271-3.054-1.307-7.04l0-27.525c0-4.368.454-5.952,1.308-7.549a8.9,8.9,0,0,1,3.7-3.7c1.535-.82,3.054-1.271,7.04-1.307Z" transform="translate(-192 -164)" fill="#3062f2"/>
      <path id="路径_23582" data-name="路径 23582" d="M575.455,131.469a9.562,9.562,0,0,1,2.748.987l.3.168a17.76,17.76,0,0,1,2.768,2.106l9.613,8.4a16.314,16.314,0,0,1,2.826,2.843,7.2,7.2,0,0,1,.461.719h-4.15c-5.171,0-7.048-.456-8.939-1.313a9.892,9.892,0,0,1-4.386-3.715l-.209-.344c-.877-1.5-1.341-3.159-1.341-7.228v-2.676l.308.059Z" transform="translate(-545.812 -131.413)" opacity="0.104"/>
      <path id="路径_23583" data-name="路径 23583" d="M598.669,138.78l.3.165A17.777,17.777,0,0,1,601.745,141l9.637,8.2a26.415,26.415,0,0,1,2.238,2.054h-3.506l-1.013-.007c-3.689-.056-5.173-.432-6.668-1.092a8.446,8.446,0,0,1-3.768-3.11c-.869-1.341-1.331-2.671-1.331-6.34V138.2a9.5,9.5,0,0,1,1.336.583Z" transform="translate(-566.3 -137.678)" fill="#c7e1ff"/>
      <path id="路径_23584" data-name="路径 23584" d="M398.432,480.249l5,11.682a2.407,2.407,0,0,0,4.548-.363l4.812-19.249a2.406,2.406,0,1,0-4.668-1.169l-3.08,12.319-4.4-10.274a2.408,2.408,0,0,0-4.427,0l-4.4,10.274-3.08-12.319a2.406,2.406,0,1,0-4.668,1.169l4.812,19.249a2.407,2.407,0,0,0,4.548.361l5-11.677Z" transform="translate(-374.161 -452.054)" fill="#fff"/>
    </g>
  </g>
</svg>
