<svg id="组_24735" data-name="组 24735" xmlns="http://www.w3.org/2000/svg" width="52.737" height="53.229" viewBox="0 0 52.737 53.229">
  <g id="组_24570" data-name="组 24570" transform="translate(0)">
    <path id="路径_23581" data-name="路径 23581" d="M204.052,164l13.148,0a17.854,17.854,0,0,1,4.438.327,8.542,8.542,0,0,1,2.708,1.148l.3.2a18.086,18.086,0,0,1,2.728,2.45l9.473,7.011a17.954,17.954,0,0,1,2.785,3.308,8.523,8.523,0,0,1,1.07,2.636l.07.336a20.5,20.5,0,0,1,.232,3.977v18.186l-.008,1c-.067,3.626-.514,5.085-1.3,6.555a8.9,8.9,0,0,1-3.7,3.7c-1.6.854-3.182,1.308-7.551,1.308H204.564l-1-.008c-3.626-.067-5.085-.514-6.555-1.3a8.9,8.9,0,0,1-3.7-3.7c-.82-1.535-1.271-3.054-1.307-7.04l0-27.525c0-4.368.454-5.952,1.308-7.549a8.9,8.9,0,0,1,3.7-3.7c1.535-.82,3.054-1.271,7.04-1.307Z" transform="translate(-188.263 -164)" fill="#ff1850"/>
    <path id="路径_23582" data-name="路径 23582" d="M575.455,131.469a9.562,9.562,0,0,1,2.748.987l.3.168a17.76,17.76,0,0,1,2.768,2.106l9.613,8.4a16.314,16.314,0,0,1,2.826,2.843,7.2,7.2,0,0,1,.461.719h-4.15c-5.171,0-7.048-.456-8.939-1.313a9.892,9.892,0,0,1-4.386-3.715l-.209-.344c-.877-1.5-1.341-3.159-1.341-7.228v-2.676l.308.059Z" transform="translate(-542.075 -131.413)" opacity="0.104"/>
    <path id="路径_23583" data-name="路径 23583" d="M598.669,138.78l.3.165A17.777,17.777,0,0,1,601.745,141l9.637,8.2a26.415,26.415,0,0,1,2.238,2.054h-3.506l-1.013-.007c-3.689-.056-5.173-.432-6.668-1.092a8.446,8.446,0,0,1-3.768-3.11c-.869-1.341-1.331-2.671-1.331-6.34V138.2a9.5,9.5,0,0,1,1.336.583Z" transform="translate(-562.563 -137.678)" fill="#ffacc0"/>
    <path id="路径_23594" data-name="路径 23594" d="M31.76,33.625c-3.482,0-6.606-5.8-8.249-9.565a58.907,58.907,0,0,0-8.772-2.84c-2.59,1.657-7,4.138-10.383,4.138A4.028,4.028,0,0,1,.19,22.549a3.213,3.213,0,0,1,.391-3.03c.893-1.183,2.732-1.783,5.485-1.783a37.559,37.559,0,0,1,8.217,1.118A52.262,52.262,0,0,0,20.225,14.1c-.816-3.758-1.709-9.849.556-12.657a4.387,4.387,0,0,1,4.9-1.183,4.336,4.336,0,0,1,3.385,3.03c.958,3.664-3.385,8.6-6.312,11.508a53.807,53.807,0,0,0,2.558,7.59c4.2,1.817,9.195,4.529,9.762,7.487a2.89,2.89,0,0,1-.958,2.807,3.78,3.78,0,0,1-2.351.939h0Zm-3.131-6.391c.766,1.654,1.5,2.435,1.882,2.435a.418.418,0,0,0,.261-.126.335.335,0,0,0,.119-.347c-.079-.434-.726-1.147-2.263-1.962ZM6.517,20.539c-1.225,0-1.563.287-1.665.422-.029.043-.117.172-.029.506.073.288.278.594.912.594A7.43,7.43,0,0,0,9.02,20.845a12.2,12.2,0,0,0-2.5-.307Zm11.994-1.477c.732.2,1.491.453,2.2.716a18.7,18.7,0,0,1-.638-1.977q-.765.647-1.557,1.261Zm5.173-14.27a.78.78,0,0,0-.607.267c-.485.592-.538,2.083-.164,3.993,1.419-1.478,2.191-2.835,2-3.561-.027-.107-.109-.432-.772-.619a1.6,1.6,0,0,0-.457-.079Z" transform="translate(0 27.851) rotate(-41)" fill="#fff"/>
  </g>
</svg>
